0
SECTION
2
HEADER
9
$INSUNITS
70
1
0
ENDSEC
0
SECTION
2
TABLES
0
TABLE
2
LAYER
0
ENDTAB
0
ENDSEC
0
SECTION
2
ENTITIES
0
LINE
8
front_outsideCutPath
10
0
20
263
11
0
21
241.3333333
0
LINE
8
front_outsideCutPath
10
0
20
241.3333333
11
6
21
241.3333333
0
LINE
8
front_outsideCutPath
10
6
20
241.3333333
11
6
21
221.7916667
0
LINE
8
front_outsideCutPath
10
6
20
221.7916667
11
13.35
21
221.7916667
0
LINE
8
front_outsideCutPath
10
13.35
20
221.7916667
11
13.35
21
223.2916667
0
LINE
8
front_outsideCutPath
10
13.35
20
223.2916667
11
16.8
21
223.2916667
0
LINE
8
front_outsideCutPath
10
16.8
20
223.2916667
11
16.8
21
221.7916667
0
LINE
8
front_outsideCutPath
10
16.8
20
221.7916667
11
20.25
21
221.7916667
0
LINE
8
front_outsideCutPath
10
20.25
20
221.7916667
11
20.25
21
217.5416667
0
LINE
8
front_outsideCutPath
10
20.25
20
217.5416667
11
16.8
21
217.5416667
0
LINE
8
front_outsideCutPath
10
16.8
20
217.5416667
11
16.8
21
216.0416667
0
LINE
8
front_outsideCutPath
10
16.8
20
216.0416667
11
13.35
21
216.0416667
0
LINE
8
front_outsideCutPath
10
13.35
20
216.0416667
11
13.35
21
217.5416667
0
LINE
8
front_outsideCutPath
10
13.35
20
217.5416667
11
6
21
217.5416667
0
LINE
8
front_outsideCutPath
10
6
20
217.5416667
11
6
21
198
0
LINE
8
front_outsideCutPath
10
6
20
198
11
0
21
198
0
LINE
8
front_outsideCutPath
10
0
20
198
11
0
21
154.6666667
0
LINE
8
front_outsideCutPath
10
0
20
154.6666667
11
6
21
154.6666667
0
LINE
8
front_outsideCutPath
10
6
20
154.6666667
11
6
21
135.125
0
LINE
8
front_outsideCutPath
10
6
20
135.125
11
13.35
21
135.125
0
LINE
8
front_outsideCutPath
10
13.35
20
135.125
11
13.35
21
136.625
0
LINE
8
front_outsideCutPath
10
13.35
20
136.625
11
16.8
21
136.625
0
LINE
8
front_outsideCutPath
10
16.8
20
136.625
11
16.8
21
135.125
0
LINE
8
front_outsideCutPath
10
16.8
20
135.125
11
20.25
21
135.125
0
LINE
8
front_outsideCutPath
10
20.25
20
135.125
11
20.25
21
130.875
0
LINE
8
front_outsideCutPath
10
20.25
20
130.875
11
16.8
21
130.875
0
LINE
8
front_outsideCutPath
10
16.8
20
130.875
11
16.8
21
129.375
0
LINE
8
front_outsideCutPath
10
16.8
20
129.375
11
13.35
21
129.375
0
LINE
8
front_outsideCutPath
10
13.35
20
129.375
11
13.35
21
130.875
0
LINE
8
front_outsideCutPath
10
13.35
20
130.875
11
6
21
130.875
0
LINE
8
front_outsideCutPath
10
6
20
130.875
11
6
21
111.3333333
0
LINE
8
front_outsideCutPath
10
6
20
111.3333333
11
0
21
111.3333333
0
LINE
8
front_outsideCutPath
10
0
20
111.3333333
11
0
21
68
0
LINE
8
front_outsideCutPath
10
0
20
68
11
6
21
68
0
LINE
8
front_outsideCutPath
10
6
20
68
11
6
21
48.4583333
0
LINE
8
front_outsideCutPath
10
6
20
48.4583333
11
13.35
21
48.4583333
0
LINE
8
front_outsideCutPath
10
13.35
20
48.4583333
11
13.35
21
49.9583333
0
LINE
8
front_outsideCutPath
10
13.35
20
49.9583333
11
16.8
21
49.9583333
0
LINE
8
front_outsideCutPath
10
16.8
20
49.9583333
11
16.8
21
48.4583333
0
LINE
8
front_outsideCutPath
10
16.8
20
48.4583333
11
20.25
21
48.4583333
0
LINE
8
front_outsideCutPath
10
20.25
20
48.4583333
11
20.25
21
44.2083333
0
LINE
8
front_outsideCutPath
10
20.25
20
44.2083333
11
16.8
21
44.2083333
0
LINE
8
front_outsideCutPath
10
16.8
20
44.2083333
11
16.8
21
42.7083333
0
LINE
8
front_outsideCutPath
10
16.8
20
42.7083333
11
13.35
21
42.7083333
0
LINE
8
front_outsideCutPath
10
13.35
20
42.7083333
11
13.35
21
44.2083333
0
LINE
8
front_outsideCutPath
10
13.35
20
44.2083333
11
6
21
44.2083333
0
LINE
8
front_outsideCutPath
10
6
20
44.2083333
11
6
21
24.6666667
0
LINE
8
front_outsideCutPath
10
6
20
24.6666667
11
0
21
24.6666667
0
LINE
8
front_outsideCutPath
10
0
20
24.6666667
11
0
21
3
0
LINE
8
front_outsideCutPath
10
0
20
3
11
11.25
21
3
0
LINE
8
front_outsideCutPath
10
11.25
20
3
11
11.25
21
9
0
LINE
8
front_outsideCutPath
10
11.25
20
9
11
20.375
21
9
0
LINE
8
front_outsideCutPath
10
20.375
20
9
11
20.375
21
16.35
0
LINE
8
front_outsideCutPath
10
20.375
20
16.35
11
18.875
21
16.35
0
LINE
8
front_outsideCutPath
10
18.875
20
16.35
11
18.875
21
19.8
0
LINE
8
front_outsideCutPath
10
18.875
20
19.8
11
20.375
21
19.8
0
LINE
8
front_outsideCutPath
10
20.375
20
19.8
11
20.375
21
23.25
0
LINE
8
front_outsideCutPath
10
20.375
20
23.25
11
24.625
21
23.25
0
LINE
8
front_outsideCutPath
10
24.625
20
23.25
11
24.625
21
19.8
0
LINE
8
front_outsideCutPath
10
24.625
20
19.8
11
26.125
21
19.8
0
LINE
8
front_outsideCutPath
10
26.125
20
19.8
11
26.125
21
16.35
0
LINE
8
front_outsideCutPath
10
26.125
20
16.35
11
24.625
21
16.35
0
LINE
8
front_outsideCutPath
10
24.625
20
16.35
11
24.625
21
9
0
LINE
8
front_outsideCutPath
10
24.625
20
9
11
33.75
21
9
0
LINE
8
front_outsideCutPath
10
33.75
20
9
11
33.75
21
3
0
LINE
8
front_outsideCutPath
10
33.75
20
3
11
56.25
21
3
0
LINE
8
front_outsideCutPath
10
56.25
20
3
11
56.25
21
9
0
LINE
8
front_outsideCutPath
10
56.25
20
9
11
65.375
21
9
0
LINE
8
front_outsideCutPath
10
65.375
20
9
11
65.375
21
16.35
0
LINE
8
front_outsideCutPath
10
65.375
20
16.35
11
63.875
21
16.35
0
LINE
8
front_outsideCutPath
10
63.875
20
16.35
11
63.875
21
19.8
0
LINE
8
front_outsideCutPath
10
63.875
20
19.8
11
65.375
21
19.8
0
LINE
8
front_outsideCutPath
10
65.375
20
19.8
11
65.375
21
23.25
0
LINE
8
front_outsideCutPath
10
65.375
20
23.25
11
69.625
21
23.25
0
LINE
8
front_outsideCutPath
10
69.625
20
23.25
11
69.625
21
19.8
0
LINE
8
front_outsideCutPath
10
69.625
20
19.8
11
71.125
21
19.8
0
LINE
8
front_outsideCutPath
10
71.125
20
19.8
11
71.125
21
16.35
0
LINE
8
front_outsideCutPath
10
71.125
20
16.35
11
69.625
21
16.35
0
LINE
8
front_outsideCutPath
10
69.625
20
16.35
11
69.625
21
9
0
LINE
8
front_outsideCutPath
10
69.625
20
9
11
78.75
21
9
0
LINE
8
front_outsideCutPath
10
78.75
20
9
11
78.75
21
3
0
LINE
8
front_outsideCutPath
10
78.75
20
3
11
101.25
21
3
0
LINE
8
front_outsideCutPath
10
101.25
20
3
11
101.25
21
9
0
LINE
8
front_outsideCutPath
10
101.25
20
9
11
110.375
21
9
0
LINE
8
front_outsideCutPath
10
110.375
20
9
11
110.375
21
16.35
0
LINE
8
front_outsideCutPath
10
110.375
20
16.35
11
108.875
21
16.35
0
LINE
8
front_outsideCutPath
10
108.875
20
16.35
11
108.875
21
19.8
0
LINE
8
front_outsideCutPath
10
108.875
20
19.8
11
110.375
21
19.8
0
LINE
8
front_outsideCutPath
10
110.375
20
19.8
11
110.375
21
23.25
0
LINE
8
front_outsideCutPath
10
110.375
20
23.25
11
114.625
21
23.25
0
LINE
8
front_outsideCutPath
10
114.625
20
23.25
11
114.625
21
19.8
0
LINE
8
front_outsideCutPath
10
114.625
20
19.8
11
116.125
21
19.8
0
LINE
8
front_outsideCutPath
10
116.125
20
19.8
11
116.125
21
16.35
0
LINE
8
front_outsideCutPath
10
116.125
20
16.35
11
114.625
21
16.35
0
LINE
8
front_outsideCutPath
10
114.625
20
16.35
11
114.625
21
9
0
LINE
8
front_outsideCutPath
10
114.625
20
9
11
123.75
21
9
0
LINE
8
front_outsideCutPath
10
123.75
20
9
11
123.75
21
3
0
LINE
8
front_outsideCutPath
10
123.75
20
3
11
135
21
3
0
LINE
8
front_outsideCutPath
10
135
20
3
11
135
21
24.6666667
0
LINE
8
front_outsideCutPath
10
135
20
24.6666667
11
129
21
24.6666667
0
LINE
8
front_outsideCutPath
10
129
20
24.6666667
11
129
21
44.2083333
0
LINE
8
front_outsideCutPath
10
129
20
44.2083333
11
121.65
21
44.2083333
0
LINE
8
front_outsideCutPath
10
121.65
20
44.2083333
11
121.65
21
42.7083333
0
LINE
8
front_outsideCutPath
10
121.65
20
42.7083333
11
118.2
21
42.7083333
0
LINE
8
front_outsideCutPath
10
118.2
20
42.7083333
11
118.2
21
44.2083333
0
LINE
8
front_outsideCutPath
10
118.2
20
44.2083333
11
114.75
21
44.2083333
0
LINE
8
front_outsideCutPath
10
114.75
20
44.2083333
11
114.75
21
48.4583333
0
LINE
8
front_outsideCutPath
10
114.75
20
48.4583333
11
118.2
21
48.4583333
0
LINE
8
front_outsideCutPath
10
118.2
20
48.4583333
11
118.2
21
49.9583333
0
LINE
8
front_outsideCutPath
10
118.2
20
49.9583333
11
121.65
21
49.9583333
0
LINE
8
front_outsideCutPath
10
121.65
20
49.9583333
11
121.65
21
48.4583333
0
LINE
8
front_outsideCutPath
10
121.65
20
48.4583333
11
129
21
48.4583333
0
LINE
8
front_outsideCutPath
10
129
20
48.4583333
11
129
21
68
0
LINE
8
front_outsideCutPath
10
129
20
68
11
135
21
68
0
LINE
8
front_outsideCutPath
10
135
20
68
11
135
21
111.3333333
0
LINE
8
front_outsideCutPath
10
135
20
111.3333333
11
129
21
111.3333333
0
LINE
8
front_outsideCutPath
10
129
20
111.3333333
11
129
21
130.875
0
LINE
8
front_outsideCutPath
10
129
20
130.875
11
121.65
21
130.875
0
LINE
8
front_outsideCutPath
10
121.65
20
130.875
11
121.65
21
129.375
0
LINE
8
front_outsideCutPath
10
121.65
20
129.375
11
118.2
21
129.375
0
LINE
8
front_outsideCutPath
10
118.2
20
129.375
11
118.2
21
130.875
0
LINE
8
front_outsideCutPath
10
118.2
20
130.875
11
114.75
21
130.875
0
LINE
8
front_outsideCutPath
10
114.75
20
130.875
11
114.75
21
135.125
0
LINE
8
front_outsideCutPath
10
114.75
20
135.125
11
118.2
21
135.125
0
LINE
8
front_outsideCutPath
10
118.2
20
135.125
11
118.2
21
136.625
0
LINE
8
front_outsideCutPath
10
118.2
20
136.625
11
121.65
21
136.625
0
LINE
8
front_outsideCutPath
10
121.65
20
136.625
11
121.65
21
135.125
0
LINE
8
front_outsideCutPath
10
121.65
20
135.125
11
129
21
135.125
0
LINE
8
front_outsideCutPath
10
129
20
135.125
11
129
21
154.6666667
0
LINE
8
front_outsideCutPath
10
129
20
154.6666667
11
135
21
154.6666667
0
LINE
8
front_outsideCutPath
10
135
20
154.6666667
11
135
21
198
0
LINE
8
front_outsideCutPath
10
135
20
198
11
129
21
198
0
LINE
8
front_outsideCutPath
10
129
20
198
11
129
21
217.5416667
0
LINE
8
front_outsideCutPath
10
129
20
217.5416667
11
121.65
21
217.5416667
0
LINE
8
front_outsideCutPath
10
121.65
20
217.5416667
11
121.65
21
216.0416667
0
LINE
8
front_outsideCutPath
10
121.65
20
216.0416667
11
118.2
21
216.0416667
0
LINE
8
front_outsideCutPath
10
118.2
20
216.0416667
11
118.2
21
217.5416667
0
LINE
8
front_outsideCutPath
10
118.2
20
217.5416667
11
114.75
21
217.5416667
0
LINE
8
front_outsideCutPath
10
114.75
20
217.5416667
11
114.75
21
221.7916667
0
LINE
8
front_outsideCutPath
10
114.75
20
221.7916667
11
118.2
21
221.7916667
0
LINE
8
front_outsideCutPath
10
118.2
20
221.7916667
11
118.2
21
223.2916667
0
LINE
8
front_outsideCutPath
10
118.2
20
223.2916667
11
121.65
21
223.2916667
0
LINE
8
front_outsideCutPath
10
121.65
20
223.2916667
11
121.65
21
221.7916667
0
LINE
8
front_outsideCutPath
10
121.65
20
221.7916667
11
129
21
221.7916667
0
LINE
8
front_outsideCutPath
10
129
20
221.7916667
11
129
21
241.3333333
0
LINE
8
front_outsideCutPath
10
129
20
241.3333333
11
135
21
241.3333333
0
LINE
8
front_outsideCutPath
10
135
20
241.3333333
11
135
21
263
0
LINE
8
front_outsideCutPath
10
135
20
263
11
0
21
263
0
LINE
8
left_outsideCutPath
10
144
20
263
11
144
21
241.3333333
0
LINE
8
left_outsideCutPath
10
144
20
241.3333333
11
138
21
241.3333333
0
LINE
8
left_outsideCutPath
10
138
20
241.3333333
11
138
21
221.7916667
0
LINE
8
left_outsideCutPath
10
138
20
221.7916667
11
142.25
21
221.7916667
0
LINE
8
left_outsideCutPath
10
142.25
20
221.7916667
11
142.25
21
219.6666667
0
LINE
8
left_outsideCutPath
10
142.25
20
219.6666667
11
142.25
21
219.6666667
0
LINE
8
left_outsideCutPath
10
142.25
20
219.6666667
11
142.25
21
217.5416667
0
LINE
8
left_outsideCutPath
10
142.25
20
217.5416667
11
138
21
217.5416667
0
LINE
8
left_outsideCutPath
10
138
20
217.5416667
11
138
21
198
0
LINE
8
left_outsideCutPath
10
138
20
198
11
144
21
198
0
LINE
8
left_outsideCutPath
10
144
20
198
11
144
21
154.6666667
0
LINE
8
left_outsideCutPath
10
144
20
154.6666667
11
138
21
154.6666667
0
LINE
8
left_outsideCutPath
10
138
20
154.6666667
11
138
21
135.125
0
LINE
8
left_outsideCutPath
10
138
20
135.125
11
142.25
21
135.125
0
LINE
8
left_outsideCutPath
10
142.25
20
135.125
11
142.25
21
133
0
LINE
8
left_outsideCutPath
10
142.25
20
133
11
142.25
21
133
0
LINE
8
left_outsideCutPath
10
142.25
20
133
11
142.25
21
130.875
0
LINE
8
left_outsideCutPath
10
142.25
20
130.875
11
138
21
130.875
0
LINE
8
left_outsideCutPath
10
138
20
130.875
11
138
21
111.3333333
0
LINE
8
left_outsideCutPath
10
138
20
111.3333333
11
144
21
111.3333333
0
LINE
8
left_outsideCutPath
10
144
20
111.3333333
11
144
21
68
0
LINE
8
left_outsideCutPath
10
144
20
68
11
138
21
68
0
LINE
8
left_outsideCutPath
10
138
20
68
11
138
21
48.4583333
0
LINE
8
left_outsideCutPath
10
138
20
48.4583333
11
142.25
21
48.4583333
0
LINE
8
left_outsideCutPath
10
142.25
20
48.4583333
11
142.25
21
46.3333333
0
LINE
8
left_outsideCutPath
10
142.25
20
46.3333333
11
142.25
21
46.3333333
0
LINE
8
left_outsideCutPath
10
142.25
20
46.3333333
11
142.25
21
44.2083333
0
LINE
8
left_outsideCutPath
10
142.25
20
44.2083333
11
138
21
44.2083333
0
LINE
8
left_outsideCutPath
10
138
20
44.2083333
11
138
21
24.6666667
0
LINE
8
left_outsideCutPath
10
138
20
24.6666667
11
144
21
24.6666667
0
LINE
8
left_outsideCutPath
10
144
20
24.6666667
11
144
21
3
0
LINE
8
left_outsideCutPath
10
144
20
3
11
149.25
21
3
0
LINE
8
left_outsideCutPath
10
149.25
20
3
11
149.25
21
9
0
LINE
8
left_outsideCutPath
10
149.25
20
9
11
158.375
21
9
0
LINE
8
left_outsideCutPath
10
158.375
20
9
11
158.375
21
16.35
0
LINE
8
left_outsideCutPath
10
158.375
20
16.35
11
156.875
21
16.35
0
LINE
8
left_outsideCutPath
10
156.875
20
16.35
11
156.875
21
19.8
0
LINE
8
left_outsideCutPath
10
156.875
20
19.8
11
158.375
21
19.8
0
LINE
8
left_outsideCutPath
10
158.375
20
19.8
11
158.375
21
23.25
0
LINE
8
left_outsideCutPath
10
158.375
20
23.25
11
162.625
21
23.25
0
LINE
8
left_outsideCutPath
10
162.625
20
23.25
11
162.625
21
19.8
0
LINE
8
left_outsideCutPath
10
162.625
20
19.8
11
164.125
21
19.8
0
LINE
8
left_outsideCutPath
10
164.125
20
19.8
11
164.125
21
16.35
0
LINE
8
left_outsideCutPath
10
164.125
20
16.35
11
162.625
21
16.35
0
LINE
8
left_outsideCutPath
10
162.625
20
16.35
11
162.625
21
9
0
LINE
8
left_outsideCutPath
10
162.625
20
9
11
171.75
21
9
0
LINE
8
left_outsideCutPath
10
171.75
20
9
11
171.75
21
3
0
LINE
8
left_outsideCutPath
10
171.75
20
3
11
194.25
21
3
0
LINE
8
left_outsideCutPath
10
194.25
20
3
11
194.25
21
9
0
LINE
8
left_outsideCutPath
10
194.25
20
9
11
203.375
21
9
0
LINE
8
left_outsideCutPath
10
203.375
20
9
11
203.375
21
16.35
0
LINE
8
left_outsideCutPath
10
203.375
20
16.35
11
201.875
21
16.35
0
LINE
8
left_outsideCutPath
10
201.875
20
16.35
11
201.875
21
19.8
0
LINE
8
left_outsideCutPath
10
201.875
20
19.8
11
203.375
21
19.8
0
LINE
8
left_outsideCutPath
10
203.375
20
19.8
11
203.375
21
23.25
0
LINE
8
left_outsideCutPath
10
203.375
20
23.25
11
207.625
21
23.25
0
LINE
8
left_outsideCutPath
10
207.625
20
23.25
11
207.625
21
19.8
0
LINE
8
left_outsideCutPath
10
207.625
20
19.8
11
209.125
21
19.8
0
LINE
8
left_outsideCutPath
10
209.125
20
19.8
11
209.125
21
16.35
0
LINE
8
left_outsideCutPath
10
209.125
20
16.35
11
207.625
21
16.35
0
LINE
8
left_outsideCutPath
10
207.625
20
16.35
11
207.625
21
9
0
LINE
8
left_outsideCutPath
10
207.625
20
9
11
216.75
21
9
0
LINE
8
left_outsideCutPath
10
216.75
20
9
11
216.75
21
3
0
LINE
8
left_outsideCutPath
10
216.75
20
3
11
239.25
21
3
0
LINE
8
left_outsideCutPath
10
239.25
20
3
11
239.25
21
9
0
LINE
8
left_outsideCutPath
10
239.25
20
9
11
248.375
21
9
0
LINE
8
left_outsideCutPath
10
248.375
20
9
11
248.375
21
16.35
0
LINE
8
left_outsideCutPath
10
248.375
20
16.35
11
246.875
21
16.35
0
LINE
8
left_outsideCutPath
10
246.875
20
16.35
11
246.875
21
19.8
0
LINE
8
left_outsideCutPath
10
246.875
20
19.8
11
248.375
21
19.8
0
LINE
8
left_outsideCutPath
10
248.375
20
19.8
11
248.375
21
23.25
0
LINE
8
left_outsideCutPath
10
248.375
20
23.25
11
252.625
21
23.25
0
LINE
8
left_outsideCutPath
10
252.625
20
23.25
11
252.625
21
19.8
0
LINE
8
left_outsideCutPath
10
252.625
20
19.8
11
254.125
21
19.8
0
LINE
8
left_outsideCutPath
10
254.125
20
19.8
11
254.125
21
16.35
0
LINE
8
left_outsideCutPath
10
254.125
20
16.35
11
252.625
21
16.35
0
LINE
8
left_outsideCutPath
10
252.625
20
16.35
11
252.625
21
9
0
LINE
8
left_outsideCutPath
10
252.625
20
9
11
261.75
21
9
0
LINE
8
left_outsideCutPath
10
261.75
20
9
11
261.75
21
3
0
LINE
8
left_outsideCutPath
10
261.75
20
3
11
267
21
3
0
LINE
8
left_outsideCutPath
10
267
20
3
11
267
21
24.6666667
0
LINE
8
left_outsideCutPath
10
267
20
24.6666667
11
273
21
24.6666667
0
LINE
8
left_outsideCutPath
10
273
20
24.6666667
11
273
21
44.2083333
0
LINE
8
left_outsideCutPath
10
273
20
44.2083333
11
268.75
21
44.2083333
0
LINE
8
left_outsideCutPath
10
268.75
20
44.2083333
11
268.75
21
46.3333333
0
LINE
8
left_outsideCutPath
10
268.75
20
46.3333333
11
268.75
21
46.3333333
0
LINE
8
left_outsideCutPath
10
268.75
20
46.3333333
11
268.75
21
48.4583333
0
LINE
8
left_outsideCutPath
10
268.75
20
48.4583333
11
273
21
48.4583333
0
LINE
8
left_outsideCutPath
10
273
20
48.4583333
11
273
21
68
0
LINE
8
left_outsideCutPath
10
273
20
68
11
267
21
68
0
LINE
8
left_outsideCutPath
10
267
20
68
11
267
21
111.3333333
0
LINE
8
left_outsideCutPath
10
267
20
111.3333333
11
273
21
111.3333333
0
LINE
8
left_outsideCutPath
10
273
20
111.3333333
11
273
21
130.875
0
LINE
8
left_outsideCutPath
10
273
20
130.875
11
268.75
21
130.875
0
LINE
8
left_outsideCutPath
10
268.75
20
130.875
11
268.75
21
133
0
LINE
8
left_outsideCutPath
10
268.75
20
133
11
268.75
21
133
0
LINE
8
left_outsideCutPath
10
268.75
20
133
11
268.75
21
135.125
0
LINE
8
left_outsideCutPath
10
268.75
20
135.125
11
273
21
135.125
0
LINE
8
left_outsideCutPath
10
273
20
135.125
11
273
21
154.6666667
0
LINE
8
left_outsideCutPath
10
273
20
154.6666667
11
267
21
154.6666667
0
LINE
8
left_outsideCutPath
10
267
20
154.6666667
11
267
21
198
0
LINE
8
left_outsideCutPath
10
267
20
198
11
273
21
198
0
LINE
8
left_outsideCutPath
10
273
20
198
11
273
21
217.5416667
0
LINE
8
left_outsideCutPath
10
273
20
217.5416667
11
268.75
21
217.5416667
0
LINE
8
left_outsideCutPath
10
268.75
20
217.5416667
11
268.75
21
219.6666667
0
LINE
8
left_outsideCutPath
10
268.75
20
219.6666667
11
268.75
21
219.6666667
0
LINE
8
left_outsideCutPath
10
268.75
20
219.6666667
11
268.75
21
221.7916667
0
LINE
8
left_outsideCutPath
10
268.75
20
221.7916667
11
273
21
221.7916667
0
LINE
8
left_outsideCutPath
10
273
20
221.7916667
11
273
21
241.3333333
0
LINE
8
left_outsideCutPath
10
273
20
241.3333333
11
267
21
241.3333333
0
LINE
8
left_outsideCutPath
10
267
20
241.3333333
11
267
21
263
0
LINE
8
left_outsideCutPath
10
267
20
263
11
144
21
263
0
LINE
8
back_outsideCutPath
10
0
20
526
11
0
21
504.3333333
0
LINE
8
back_outsideCutPath
10
0
20
504.3333333
11
6
21
504.3333333
0
LINE
8
back_outsideCutPath
10
6
20
504.3333333
11
6
21
484.7916667
0
LINE
8
back_outsideCutPath
10
6
20
484.7916667
11
13.35
21
484.7916667
0
LINE
8
back_outsideCutPath
10
13.35
20
484.7916667
11
13.35
21
486.2916667
0
LINE
8
back_outsideCutPath
10
13.35
20
486.2916667
11
16.8
21
486.2916667
0
LINE
8
back_outsideCutPath
10
16.8
20
486.2916667
11
16.8
21
484.7916667
0
LINE
8
back_outsideCutPath
10
16.8
20
484.7916667
11
20.25
21
484.7916667
0
LINE
8
back_outsideCutPath
10
20.25
20
484.7916667
11
20.25
21
480.5416667
0
LINE
8
back_outsideCutPath
10
20.25
20
480.5416667
11
16.8
21
480.5416667
0
LINE
8
back_outsideCutPath
10
16.8
20
480.5416667
11
16.8
21
479.0416667
0
LINE
8
back_outsideCutPath
10
16.8
20
479.0416667
11
13.35
21
479.0416667
0
LINE
8
back_outsideCutPath
10
13.35
20
479.0416667
11
13.35
21
480.5416667
0
LINE
8
back_outsideCutPath
10
13.35
20
480.5416667
11
6
21
480.5416667
0
LINE
8
back_outsideCutPath
10
6
20
480.5416667
11
6
21
461
0
LINE
8
back_outsideCutPath
10
6
20
461
11
0
21
461
0
LINE
8
back_outsideCutPath
10
0
20
461
11
0
21
417.6666667
0
LINE
8
back_outsideCutPath
10
0
20
417.6666667
11
6
21
417.6666667
0
LINE
8
back_outsideCutPath
10
6
20
417.6666667
11
6
21
398.125
0
LINE
8
back_outsideCutPath
10
6
20
398.125
11
13.35
21
398.125
0
LINE
8
back_outsideCutPath
10
13.35
20
398.125
11
13.35
21
399.625
0
LINE
8
back_outsideCutPath
10
13.35
20
399.625
11
16.8
21
399.625
0
LINE
8
back_outsideCutPath
10
16.8
20
399.625
11
16.8
21
398.125
0
LINE
8
back_outsideCutPath
10
16.8
20
398.125
11
20.25
21
398.125
0
LINE
8
back_outsideCutPath
10
20.25
20
398.125
11
20.25
21
393.875
0
LINE
8
back_outsideCutPath
10
20.25
20
393.875
11
16.8
21
393.875
0
LINE
8
back_outsideCutPath
10
16.8
20
393.875
11
16.8
21
392.375
0
LINE
8
back_outsideCutPath
10
16.8
20
392.375
11
13.35
21
392.375
0
LINE
8
back_outsideCutPath
10
13.35
20
392.375
11
13.35
21
393.875
0
LINE
8
back_outsideCutPath
10
13.35
20
393.875
11
6
21
393.875
0
LINE
8
back_outsideCutPath
10
6
20
393.875
11
6
21
374.3333333
0
LINE
8
back_outsideCutPath
10
6
20
374.3333333
11
0
21
374.3333333
0
LINE
8
back_outsideCutPath
10
0
20
374.3333333
11
0
21
331
0
LINE
8
back_outsideCutPath
10
0
20
331
11
6
21
331
0
LINE
8
back_outsideCutPath
10
6
20
331
11
6
21
311.4583333
0
LINE
8
back_outsideCutPath
10
6
20
311.4583333
11
13.35
21
311.4583333
0
LINE
8
back_outsideCutPath
10
13.35
20
311.4583333
11
13.35
21
312.9583333
0
LINE
8
back_outsideCutPath
10
13.35
20
312.9583333
11
16.8
21
312.9583333
0
LINE
8
back_outsideCutPath
10
16.8
20
312.9583333
11
16.8
21
311.4583333
0
LINE
8
back_outsideCutPath
10
16.8
20
311.4583333
11
20.25
21
311.4583333
0
LINE
8
back_outsideCutPath
10
20.25
20
311.4583333
11
20.25
21
307.2083333
0
LINE
8
back_outsideCutPath
10
20.25
20
307.2083333
11
16.8
21
307.2083333
0
LINE
8
back_outsideCutPath
10
16.8
20
307.2083333
11
16.8
21
305.7083333
0
LINE
8
back_outsideCutPath
10
16.8
20
305.7083333
11
13.35
21
305.7083333
0
LINE
8
back_outsideCutPath
10
13.35
20
305.7083333
11
13.35
21
307.2083333
0
LINE
8
back_outsideCutPath
10
13.35
20
307.2083333
11
6
21
307.2083333
0
LINE
8
back_outsideCutPath
10
6
20
307.2083333
11
6
21
287.6666667
0
LINE
8
back_outsideCutPath
10
6
20
287.6666667
11
0
21
287.6666667
0
LINE
8
back_outsideCutPath
10
0
20
287.6666667
11
0
21
266
0
LINE
8
back_outsideCutPath
10
0
20
266
11
11.25
21
266
0
LINE
8
back_outsideCutPath
10
11.25
20
266
11
11.25
21
272
0
LINE
8
back_outsideCutPath
10
11.25
20
272
11
20.375
21
272
0
LINE
8
back_outsideCutPath
10
20.375
20
272
11
20.375
21
279.35
0
LINE
8
back_outsideCutPath
10
20.375
20
279.35
11
18.875
21
279.35
0
LINE
8
back_outsideCutPath
10
18.875
20
279.35
11
18.875
21
282.8
0
LINE
8
back_outsideCutPath
10
18.875
20
282.8
11
20.375
21
282.8
0
LINE
8
back_outsideCutPath
10
20.375
20
282.8
11
20.375
21
286.25
0
LINE
8
back_outsideCutPath
10
20.375
20
286.25
11
24.625
21
286.25
0
LINE
8
back_outsideCutPath
10
24.625
20
286.25
11
24.625
21
282.8
0
LINE
8
back_outsideCutPath
10
24.625
20
282.8
11
26.125
21
282.8
0
LINE
8
back_outsideCutPath
10
26.125
20
282.8
11
26.125
21
279.35
0
LINE
8
back_outsideCutPath
10
26.125
20
279.35
11
24.625
21
279.35
0
LINE
8
back_outsideCutPath
10
24.625
20
279.35
11
24.625
21
272
0
LINE
8
back_outsideCutPath
10
24.625
20
272
11
33.75
21
272
0
LINE
8
back_outsideCutPath
10
33.75
20
272
11
33.75
21
266
0
LINE
8
back_outsideCutPath
10
33.75
20
266
11
56.25
21
266
0
LINE
8
back_outsideCutPath
10
56.25
20
266
11
56.25
21
272
0
LINE
8
back_outsideCutPath
10
56.25
20
272
11
65.375
21
272
0
LINE
8
back_outsideCutPath
10
65.375
20
272
11
65.375
21
279.35
0
LINE
8
back_outsideCutPath
10
65.375
20
279.35
11
63.875
21
279.35
0
LINE
8
back_outsideCutPath
10
63.875
20
279.35
11
63.875
21
282.8
0
LINE
8
back_outsideCutPath
10
63.875
20
282.8
11
65.375
21
282.8
0
LINE
8
back_outsideCutPath
10
65.375
20
282.8
11
65.375
21
286.25
0
LINE
8
back_outsideCutPath
10
65.375
20
286.25
11
69.625
21
286.25
0
LINE
8
back_outsideCutPath
10
69.625
20
286.25
11
69.625
21
282.8
0
LINE
8
back_outsideCutPath
10
69.625
20
282.8
11
71.125
21
282.8
0
LINE
8
back_outsideCutPath
10
71.125
20
282.8
11
71.125
21
279.35
0
LINE
8
back_outsideCutPath
10
71.125
20
279.35
11
69.625
21
279.35
0
LINE
8
back_outsideCutPath
10
69.625
20
279.35
11
69.625
21
272
0
LINE
8
back_outsideCutPath
10
69.625
20
272
11
78.75
21
272
0
LINE
8
back_outsideCutPath
10
78.75
20
272
11
78.75
21
266
0
LINE
8
back_outsideCutPath
10
78.75
20
266
11
101.25
21
266
0
LINE
8
back_outsideCutPath
10
101.25
20
266
11
101.25
21
272
0
LINE
8
back_outsideCutPath
10
101.25
20
272
11
110.375
21
272
0
LINE
8
back_outsideCutPath
10
110.375
20
272
11
110.375
21
279.35
0
LINE
8
back_outsideCutPath
10
110.375
20
279.35
11
108.875
21
279.35
0
LINE
8
back_outsideCutPath
10
108.875
20
279.35
11
108.875
21
282.8
0
LINE
8
back_outsideCutPath
10
108.875
20
282.8
11
110.375
21
282.8
0
LINE
8
back_outsideCutPath
10
110.375
20
282.8
11
110.375
21
286.25
0
LINE
8
back_outsideCutPath
10
110.375
20
286.25
11
114.625
21
286.25
0
LINE
8
back_outsideCutPath
10
114.625
20
286.25
11
114.625
21
282.8
0
LINE
8
back_outsideCutPath
10
114.625
20
282.8
11
116.125
21
282.8
0
LINE
8
back_outsideCutPath
10
116.125
20
282.8
11
116.125
21
279.35
0
LINE
8
back_outsideCutPath
10
116.125
20
279.35
11
114.625
21
279.35
0
LINE
8
back_outsideCutPath
10
114.625
20
279.35
11
114.625
21
272
0
LINE
8
back_outsideCutPath
10
114.625
20
272
11
123.75
21
272
0
LINE
8
back_outsideCutPath
10
123.75
20
272
11
123.75
21
266
0
LINE
8
back_outsideCutPath
10
123.75
20
266
11
135
21
266
0
LINE
8
back_outsideCutPath
10
135
20
266
11
135
21
287.6666667
0
LINE
8
back_outsideCutPath
10
135
20
287.6666667
11
129
21
287.6666667
0
LINE
8
back_outsideCutPath
10
129
20
287.6666667
11
129
21
307.2083333
0
LINE
8
back_outsideCutPath
10
129
20
307.2083333
11
121.65
21
307.2083333
0
LINE
8
back_outsideCutPath
10
121.65
20
307.2083333
11
121.65
21
305.7083333
0
LINE
8
back_outsideCutPath
10
121.65
20
305.7083333
11
118.2
21
305.7083333
0
LINE
8
back_outsideCutPath
10
118.2
20
305.7083333
11
118.2
21
307.2083333
0
LINE
8
back_outsideCutPath
10
118.2
20
307.2083333
11
114.75
21
307.2083333
0
LINE
8
back_outsideCutPath
10
114.75
20
307.2083333
11
114.75
21
311.4583333
0
LINE
8
back_outsideCutPath
10
114.75
20
311.4583333
11
118.2
21
311.4583333
0
LINE
8
back_outsideCutPath
10
118.2
20
311.4583333
11
118.2
21
312.9583333
0
LINE
8
back_outsideCutPath
10
118.2
20
312.9583333
11
121.65
21
312.9583333
0
LINE
8
back_outsideCutPath
10
121.65
20
312.9583333
11
121.65
21
311.4583333
0
LINE
8
back_outsideCutPath
10
121.65
20
311.4583333
11
129
21
311.4583333
0
LINE
8
back_outsideCutPath
10
129
20
311.4583333
11
129
21
331
0
LINE
8
back_outsideCutPath
10
129
20
331
11
135
21
331
0
LINE
8
back_outsideCutPath
10
135
20
331
11
135
21
374.3333333
0
LINE
8
back_outsideCutPath
10
135
20
374.3333333
11
129
21
374.3333333
0
LINE
8
back_outsideCutPath
10
129
20
374.3333333
11
129
21
393.875
0
LINE
8
back_outsideCutPath
10
129
20
393.875
11
121.65
21
393.875
0
LINE
8
back_outsideCutPath
10
121.65
20
393.875
11
121.65
21
392.375
0
LINE
8
back_outsideCutPath
10
121.65
20
392.375
11
118.2
21
392.375
0
LINE
8
back_outsideCutPath
10
118.2
20
392.375
11
118.2
21
393.875
0
LINE
8
back_outsideCutPath
10
118.2
20
393.875
11
114.75
21
393.875
0
LINE
8
back_outsideCutPath
10
114.75
20
393.875
11
114.75
21
398.125
0
LINE
8
back_outsideCutPath
10
114.75
20
398.125
11
118.2
21
398.125
0
LINE
8
back_outsideCutPath
10
118.2
20
398.125
11
118.2
21
399.625
0
LINE
8
back_outsideCutPath
10
118.2
20
399.625
11
121.65
21
399.625
0
LINE
8
back_outsideCutPath
10
121.65
20
399.625
11
121.65
21
398.125
0
LINE
8
back_outsideCutPath
10
121.65
20
398.125
11
129
21
398.125
0
LINE
8
back_outsideCutPath
10
129
20
398.125
11
129
21
417.6666667
0
LINE
8
back_outsideCutPath
10
129
20
417.6666667
11
135
21
417.6666667
0
LINE
8
back_outsideCutPath
10
135
20
417.6666667
11
135
21
461
0
LINE
8
back_outsideCutPath
10
135
20
461
11
129
21
461
0
LINE
8
back_outsideCutPath
10
129
20
461
11
129
21
480.5416667
0
LINE
8
back_outsideCutPath
10
129
20
480.5416667
11
121.65
21
480.5416667
0
LINE
8
back_outsideCutPath
10
121.65
20
480.5416667
11
121.65
21
479.0416667
0
LINE
8
back_outsideCutPath
10
121.65
20
479.0416667
11
118.2
21
479.0416667
0
LINE
8
back_outsideCutPath
10
118.2
20
479.0416667
11
118.2
21
480.5416667
0
LINE
8
back_outsideCutPath
10
118.2
20
480.5416667
11
114.75
21
480.5416667
0
LINE
8
back_outsideCutPath
10
114.75
20
480.5416667
11
114.75
21
484.7916667
0
LINE
8
back_outsideCutPath
10
114.75
20
484.7916667
11
118.2
21
484.7916667
0
LINE
8
back_outsideCutPath
10
118.2
20
484.7916667
11
118.2
21
486.2916667
0
LINE
8
back_outsideCutPath
10
118.2
20
486.2916667
11
121.65
21
486.2916667
0
LINE
8
back_outsideCutPath
10
121.65
20
486.2916667
11
121.65
21
484.7916667
0
LINE
8
back_outsideCutPath
10
121.65
20
484.7916667
11
129
21
484.7916667
0
LINE
8
back_outsideCutPath
10
129
20
484.7916667
11
129
21
504.3333333
0
LINE
8
back_outsideCutPath
10
129
20
504.3333333
11
135
21
504.3333333
0
LINE
8
back_outsideCutPath
10
135
20
504.3333333
11
135
21
526
0
LINE
8
back_outsideCutPath
10
135
20
526
11
0
21
526
0
LINE
8
right_outsideCutPath
10
144
20
526
11
144
21
504.3333333
0
LINE
8
right_outsideCutPath
10
144
20
504.3333333
11
138
21
504.3333333
0
LINE
8
right_outsideCutPath
10
138
20
504.3333333
11
138
21
484.7916667
0
LINE
8
right_outsideCutPath
10
138
20
484.7916667
11
142.25
21
484.7916667
0
LINE
8
right_outsideCutPath
10
142.25
20
484.7916667
11
142.25
21
482.6666667
0
LINE
8
right_outsideCutPath
10
142.25
20
482.6666667
11
142.25
21
482.6666667
0
LINE
8
right_outsideCutPath
10
142.25
20
482.6666667
11
142.25
21
480.5416667
0
LINE
8
right_outsideCutPath
10
142.25
20
480.5416667
11
138
21
480.5416667
0
LINE
8
right_outsideCutPath
10
138
20
480.5416667
11
138
21
461
0
LINE
8
right_outsideCutPath
10
138
20
461
11
144
21
461
0
LINE
8
right_outsideCutPath
10
144
20
461
11
144
21
417.6666667
0
LINE
8
right_outsideCutPath
10
144
20
417.6666667
11
138
21
417.6666667
0
LINE
8
right_outsideCutPath
10
138
20
417.6666667
11
138
21
398.125
0
LINE
8
right_outsideCutPath
10
138
20
398.125
11
142.25
21
398.125
0
LINE
8
right_outsideCutPath
10
142.25
20
398.125
11
142.25
21
396
0
LINE
8
right_outsideCutPath
10
142.25
20
396
11
142.25
21
396
0
LINE
8
right_outsideCutPath
10
142.25
20
396
11
142.25
21
393.875
0
LINE
8
right_outsideCutPath
10
142.25
20
393.875
11
138
21
393.875
0
LINE
8
right_outsideCutPath
10
138
20
393.875
11
138
21
374.3333333
0
LINE
8
right_outsideCutPath
10
138
20
374.3333333
11
144
21
374.3333333
0
LINE
8
right_outsideCutPath
10
144
20
374.3333333
11
144
21
331
0
LINE
8
right_outsideCutPath
10
144
20
331
11
138
21
331
0
LINE
8
right_outsideCutPath
10
138
20
331
11
138
21
311.4583333
0
LINE
8
right_outsideCutPath
10
138
20
311.4583333
11
142.25
21
311.4583333
0
LINE
8
right_outsideCutPath
10
142.25
20
311.4583333
11
142.25
21
309.3333333
0
LINE
8
right_outsideCutPath
10
142.25
20
309.3333333
11
142.25
21
309.3333333
0
LINE
8
right_outsideCutPath
10
142.25
20
309.3333333
11
142.25
21
307.2083333
0
LINE
8
right_outsideCutPath
10
142.25
20
307.2083333
11
138
21
307.2083333
0
LINE
8
right_outsideCutPath
10
138
20
307.2083333
11
138
21
287.6666667
0
LINE
8
right_outsideCutPath
10
138
20
287.6666667
11
144
21
287.6666667
0
LINE
8
right_outsideCutPath
10
144
20
287.6666667
11
144
21
266
0
LINE
8
right_outsideCutPath
10
144
20
266
11
149.25
21
266
0
LINE
8
right_outsideCutPath
10
149.25
20
266
11
149.25
21
272
0
LINE
8
right_outsideCutPath
10
149.25
20
272
11
158.375
21
272
0
LINE
8
right_outsideCutPath
10
158.375
20
272
11
158.375
21
279.35
0
LINE
8
right_outsideCutPath
10
158.375
20
279.35
11
156.875
21
279.35
0
LINE
8
right_outsideCutPath
10
156.875
20
279.35
11
156.875
21
282.8
0
LINE
8
right_outsideCutPath
10
156.875
20
282.8
11
158.375
21
282.8
0
LINE
8
right_outsideCutPath
10
158.375
20
282.8
11
158.375
21
286.25
0
LINE
8
right_outsideCutPath
10
158.375
20
286.25
11
162.625
21
286.25
0
LINE
8
right_outsideCutPath
10
162.625
20
286.25
11
162.625
21
282.8
0
LINE
8
right_outsideCutPath
10
162.625
20
282.8
11
164.125
21
282.8
0
LINE
8
right_outsideCutPath
10
164.125
20
282.8
11
164.125
21
279.35
0
LINE
8
right_outsideCutPath
10
164.125
20
279.35
11
162.625
21
279.35
0
LINE
8
right_outsideCutPath
10
162.625
20
279.35
11
162.625
21
272
0
LINE
8
right_outsideCutPath
10
162.625
20
272
11
171.75
21
272
0
LINE
8
right_outsideCutPath
10
171.75
20
272
11
171.75
21
266
0
LINE
8
right_outsideCutPath
10
171.75
20
266
11
194.25
21
266
0
LINE
8
right_outsideCutPath
10
194.25
20
266
11
194.25
21
272
0
LINE
8
right_outsideCutPath
10
194.25
20
272
11
203.375
21
272
0
LINE
8
right_outsideCutPath
10
203.375
20
272
11
203.375
21
279.35
0
LINE
8
right_outsideCutPath
10
203.375
20
279.35
11
201.875
21
279.35
0
LINE
8
right_outsideCutPath
10
201.875
20
279.35
11
201.875
21
282.8
0
LINE
8
right_outsideCutPath
10
201.875
20
282.8
11
203.375
21
282.8
0
LINE
8
right_outsideCutPath
10
203.375
20
282.8
11
203.375
21
286.25
0
LINE
8
right_outsideCutPath
10
203.375
20
286.25
11
207.625
21
286.25
0
LINE
8
right_outsideCutPath
10
207.625
20
286.25
11
207.625
21
282.8
0
LINE
8
right_outsideCutPath
10
207.625
20
282.8
11
209.125
21
282.8
0
LINE
8
right_outsideCutPath
10
209.125
20
282.8
11
209.125
21
279.35
0
LINE
8
right_outsideCutPath
10
209.125
20
279.35
11
207.625
21
279.35
0
LINE
8
right_outsideCutPath
10
207.625
20
279.35
11
207.625
21
272
0
LINE
8
right_outsideCutPath
10
207.625
20
272
11
216.75
21
272
0
LINE
8
right_outsideCutPath
10
216.75
20
272
11
216.75
21
266
0
LINE
8
right_outsideCutPath
10
216.75
20
266
11
239.25
21
266
0
LINE
8
right_outsideCutPath
10
239.25
20
266
11
239.25
21
272
0
LINE
8
right_outsideCutPath
10
239.25
20
272
11
248.375
21
272
0
LINE
8
right_outsideCutPath
10
248.375
20
272
11
248.375
21
279.35
0
LINE
8
right_outsideCutPath
10
248.375
20
279.35
11
246.875
21
279.35
0
LINE
8
right_outsideCutPath
10
246.875
20
279.35
11
246.875
21
282.8
0
LINE
8
right_outsideCutPath
10
246.875
20
282.8
11
248.375
21
282.8
0
LINE
8
right_outsideCutPath
10
248.375
20
282.8
11
248.375
21
286.25
0
LINE
8
right_outsideCutPath
10
248.375
20
286.25
11
252.625
21
286.25
0
LINE
8
right_outsideCutPath
10
252.625
20
286.25
11
252.625
21
282.8
0
LINE
8
right_outsideCutPath
10
252.625
20
282.8
11
254.125
21
282.8
0
LINE
8
right_outsideCutPath
10
254.125
20
282.8
11
254.125
21
279.35
0
LINE
8
right_outsideCutPath
10
254.125
20
279.35
11
252.625
21
279.35
0
LINE
8
right_outsideCutPath
10
252.625
20
279.35
11
252.625
21
272
0
LINE
8
right_outsideCutPath
10
252.625
20
272
11
261.75
21
272
0
LINE
8
right_outsideCutPath
10
261.75
20
272
11
261.75
21
266
0
LINE
8
right_outsideCutPath
10
261.75
20
266
11
267
21
266
0
LINE
8
right_outsideCutPath
10
267
20
266
11
267
21
287.6666667
0
LINE
8
right_outsideCutPath
10
267
20
287.6666667
11
273
21
287.6666667
0
LINE
8
right_outsideCutPath
10
273
20
287.6666667
11
273
21
307.2083333
0
LINE
8
right_outsideCutPath
10
273
20
307.2083333
11
268.75
21
307.2083333
0
LINE
8
right_outsideCutPath
10
268.75
20
307.2083333
11
268.75
21
309.3333333
0
LINE
8
right_outsideCutPath
10
268.75
20
309.3333333
11
268.75
21
309.3333333
0
LINE
8
right_outsideCutPath
10
268.75
20
309.3333333
11
268.75
21
311.4583333
0
LINE
8
right_outsideCutPath
10
268.75
20
311.4583333
11
273
21
311.4583333
0
LINE
8
right_outsideCutPath
10
273
20
311.4583333
11
273
21
331
0
LINE
8
right_outsideCutPath
10
273
20
331
11
267
21
331
0
LINE
8
right_outsideCutPath
10
267
20
331
11
267
21
374.3333333
0
LINE
8
right_outsideCutPath
10
267
20
374.3333333
11
273
21
374.3333333
0
LINE
8
right_outsideCutPath
10
273
20
374.3333333
11
273
21
393.875
0
LINE
8
right_outsideCutPath
10
273
20
393.875
11
268.75
21
393.875
0
LINE
8
right_outsideCutPath
10
268.75
20
393.875
11
268.75
21
396
0
LINE
8
right_outsideCutPath
10
268.75
20
396
11
268.75
21
396
0
LINE
8
right_outsideCutPath
10
268.75
20
396
11
268.75
21
398.125
0
LINE
8
right_outsideCutPath
10
268.75
20
398.125
11
273
21
398.125
0
LINE
8
right_outsideCutPath
10
273
20
398.125
11
273
21
417.6666667
0
LINE
8
right_outsideCutPath
10
273
20
417.6666667
11
267
21
417.6666667
0
LINE
8
right_outsideCutPath
10
267
20
417.6666667
11
267
21
461
0
LINE
8
right_outsideCutPath
10
267
20
461
11
273
21
461
0
LINE
8
right_outsideCutPath
10
273
20
461
11
273
21
480.5416667
0
LINE
8
right_outsideCutPath
10
273
20
480.5416667
11
268.75
21
480.5416667
0
LINE
8
right_outsideCutPath
10
268.75
20
480.5416667
11
268.75
21
482.6666667
0
LINE
8
right_outsideCutPath
10
268.75
20
482.6666667
11
268.75
21
482.6666667
0
LINE
8
right_outsideCutPath
10
268.75
20
482.6666667
11
268.75
21
484.7916667
0
LINE
8
right_outsideCutPath
10
268.75
20
484.7916667
11
273
21
484.7916667
0
LINE
8
right_outsideCutPath
10
273
20
484.7916667
11
273
21
504.3333333
0
LINE
8
right_outsideCutPath
10
273
20
504.3333333
11
267
21
504.3333333
0
LINE
8
right_outsideCutPath
10
267
20
504.3333333
11
267
21
526
0
LINE
8
right_outsideCutPath
10
267
20
526
11
144
21
526
0
LINE
8
bottom_outsideCutPath
10
282
20
132
11
282
21
126.75
0
LINE
8
bottom_outsideCutPath
10
282
20
126.75
11
276
21
126.75
0
LINE
8
bottom_outsideCutPath
10
276
20
126.75
11
276
21
117.625
0
LINE
8
bottom_outsideCutPath
10
276
20
117.625
11
280.25
21
117.625
0
LINE
8
bottom_outsideCutPath
10
280.25
20
117.625
11
280.25
21
115.5
0
LINE
8
bottom_outsideCutPath
10
280.25
20
115.5
11
280.25
21
115.5
0
LINE
8
bottom_outsideCutPath
10
280.25
20
115.5
11
280.25
21
113.375
0
LINE
8
bottom_outsideCutPath
10
280.25
20
113.375
11
276
21
113.375
0
LINE
8
bottom_outsideCutPath
10
276
20
113.375
11
276
21
104.25
0
LINE
8
bottom_outsideCutPath
10
276
20
104.25
11
282
21
104.25
0
LINE
8
bottom_outsideCutPath
10
282
20
104.25
11
282
21
81.75
0
LINE
8
bottom_outsideCutPath
10
282
20
81.75
11
276
21
81.75
0
LINE
8
bottom_outsideCutPath
10
276
20
81.75
11
276
21
72.625
0
LINE
8
bottom_outsideCutPath
10
276
20
72.625
11
280.25
21
72.625
0
LINE
8
bottom_outsideCutPath
10
280.25
20
72.625
11
280.25
21
70.5
0
LINE
8
bottom_outsideCutPath
10
280.25
20
70.5
11
280.25
21
70.5
0
LINE
8
bottom_outsideCutPath
10
280.25
20
70.5
11
280.25
21
68.375
0
LINE
8
bottom_outsideCutPath
10
280.25
20
68.375
11
276
21
68.375
0
LINE
8
bottom_outsideCutPath
10
276
20
68.375
11
276
21
59.25
0
LINE
8
bottom_outsideCutPath
10
276
20
59.25
11
282
21
59.25
0
LINE
8
bottom_outsideCutPath
10
282
20
59.25
11
282
21
36.75
0
LINE
8
bottom_outsideCutPath
10
282
20
36.75
11
276
21
36.75
0
LINE
8
bottom_outsideCutPath
10
276
20
36.75
11
276
21
27.625
0
LINE
8
bottom_outsideCutPath
10
276
20
27.625
11
280.25
21
27.625
0
LINE
8
bottom_outsideCutPath
10
280.25
20
27.625
11
280.25
21
25.5
0
LINE
8
bottom_outsideCutPath
10
280.25
20
25.5
11
280.25
21
25.5
0
LINE
8
bottom_outsideCutPath
10
280.25
20
25.5
11
280.25
21
23.375
0
LINE
8
bottom_outsideCutPath
10
280.25
20
23.375
11
276
21
23.375
0
LINE
8
bottom_outsideCutPath
10
276
20
23.375
11
276
21
14.25
0
LINE
8
bottom_outsideCutPath
10
276
20
14.25
11
282
21
14.25
0
LINE
8
bottom_outsideCutPath
10
282
20
14.25
11
282
21
9
0
LINE
8
bottom_outsideCutPath
10
282
20
9
11
287.25
21
9
0
LINE
8
bottom_outsideCutPath
10
287.25
20
9
11
287.25
21
3
0
LINE
8
bottom_outsideCutPath
10
287.25
20
3
11
296.375
21
3
0
LINE
8
bottom_outsideCutPath
10
296.375
20
3
11
296.375
21
7.25
0
LINE
8
bottom_outsideCutPath
10
296.375
20
7.25
11
298.5
21
7.25
0
LINE
8
bottom_outsideCutPath
10
298.5
20
7.25
11
298.5
21
7.25
0
LINE
8
bottom_outsideCutPath
10
298.5
20
7.25
11
300.625
21
7.25
0
LINE
8
bottom_outsideCutPath
10
300.625
20
7.25
11
300.625
21
3
0
LINE
8
bottom_outsideCutPath
10
300.625
20
3
11
309.75
21
3
0
LINE
8
bottom_outsideCutPath
10
309.75
20
3
11
309.75
21
9
0
LINE
8
bottom_outsideCutPath
10
309.75
20
9
11
332.25
21
9
0
LINE
8
bottom_outsideCutPath
10
332.25
20
9
11
332.25
21
3
0
LINE
8
bottom_outsideCutPath
10
332.25
20
3
11
341.375
21
3
0
LINE
8
bottom_outsideCutPath
10
341.375
20
3
11
341.375
21
7.25
0
LINE
8
bottom_outsideCutPath
10
341.375
20
7.25
11
343.5
21
7.25
0
LINE
8
bottom_outsideCutPath
10
343.5
20
7.25
11
343.5
21
7.25
0
LINE
8
bottom_outsideCutPath
10
343.5
20
7.25
11
345.625
21
7.25
0
LINE
8
bottom_outsideCutPath
10
345.625
20
7.25
11
345.625
21
3
0
LINE
8
bottom_outsideCutPath
10
345.625
20
3
11
354.75
21
3
0
LINE
8
bottom_outsideCutPath
10
354.75
20
3
11
354.75
21
9
0
LINE
8
bottom_outsideCutPath
10
354.75
20
9
11
377.25
21
9
0
LINE
8
bottom_outsideCutPath
10
377.25
20
9
11
377.25
21
3
0
LINE
8
bottom_outsideCutPath
10
377.25
20
3
11
386.375
21
3
0
LINE
8
bottom_outsideCutPath
10
386.375
20
3
11
386.375
21
7.25
0
LINE
8
bottom_outsideCutPath
10
386.375
20
7.25
11
388.5
21
7.25
0
LINE
8
bottom_outsideCutPath
10
388.5
20
7.25
11
388.5
21
7.25
0
LINE
8
bottom_outsideCutPath
10
388.5
20
7.25
11
390.625
21
7.25
0
LINE
8
bottom_outsideCutPath
10
390.625
20
7.25
11
390.625
21
3
0
LINE
8
bottom_outsideCutPath
10
390.625
20
3
11
399.75
21
3
0
LINE
8
bottom_outsideCutPath
10
399.75
20
3
11
399.75
21
9
0
LINE
8
bottom_outsideCutPath
10
399.75
20
9
11
405
21
9
0
LINE
8
bottom_outsideCutPath
10
405
20
9
11
405
21
14.25
0
LINE
8
bottom_outsideCutPath
10
405
20
14.25
11
411
21
14.25
0
LINE
8
bottom_outsideCutPath
10
411
20
14.25
11
411
21
23.375
0
LINE
8
bottom_outsideCutPath
10
411
20
23.375
11
406.75
21
23.375
0
LINE
8
bottom_outsideCutPath
10
406.75
20
23.375
11
406.75
21
25.5
0
LINE
8
bottom_outsideCutPath
10
406.75
20
25.5
11
406.75
21
25.5
0
LINE
8
bottom_outsideCutPath
10
406.75
20
25.5
11
406.75
21
27.625
0
LINE
8
bottom_outsideCutPath
10
406.75
20
27.625
11
411
21
27.625
0
LINE
8
bottom_outsideCutPath
10
411
20
27.625
11
411
21
36.75
0
LINE
8
bottom_outsideCutPath
10
411
20
36.75
11
405
21
36.75
0
LINE
8
bottom_outsideCutPath
10
405
20
36.75
11
405
21
59.25
0
LINE
8
bottom_outsideCutPath
10
405
20
59.25
11
411
21
59.25
0
LINE
8
bottom_outsideCutPath
10
411
20
59.25
11
411
21
68.375
0
LINE
8
bottom_outsideCutPath
10
411
20
68.375
11
406.75
21
68.375
0
LINE
8
bottom_outsideCutPath
10
406.75
20
68.375
11
406.75
21
70.5
0
LINE
8
bottom_outsideCutPath
10
406.75
20
70.5
11
406.75
21
70.5
0
LINE
8
bottom_outsideCutPath
10
406.75
20
70.5
11
406.75
21
72.625
0
LINE
8
bottom_outsideCutPath
10
406.75
20
72.625
11
411
21
72.625
0
LINE
8
bottom_outsideCutPath
10
411
20
72.625
11
411
21
81.75
0
LINE
8
bottom_outsideCutPath
10
411
20
81.75
11
405
21
81.75
0
LINE
8
bottom_outsideCutPath
10
405
20
81.75
11
405
21
104.25
0
LINE
8
bottom_outsideCutPath
10
405
20
104.25
11
411
21
104.25
0
LINE
8
bottom_outsideCutPath
10
411
20
104.25
11
411
21
113.375
0
LINE
8
bottom_outsideCutPath
10
411
20
113.375
11
406.75
21
113.375
0
LINE
8
bottom_outsideCutPath
10
406.75
20
113.375
11
406.75
21
115.5
0
LINE
8
bottom_outsideCutPath
10
406.75
20
115.5
11
406.75
21
115.5
0
LINE
8
bottom_outsideCutPath
10
406.75
20
115.5
11
406.75
21
117.625
0
LINE
8
bottom_outsideCutPath
10
406.75
20
117.625
11
411
21
117.625
0
LINE
8
bottom_outsideCutPath
10
411
20
117.625
11
411
21
126.75
0
LINE
8
bottom_outsideCutPath
10
411
20
126.75
11
405
21
126.75
0
LINE
8
bottom_outsideCutPath
10
405
20
126.75
11
405
21
132
0
LINE
8
bottom_outsideCutPath
10
405
20
132
11
399.75
21
132
0
LINE
8
bottom_outsideCutPath
10
399.75
20
132
11
399.75
21
138
0
LINE
8
bottom_outsideCutPath
10
399.75
20
138
11
390.625
21
138
0
LINE
8
bottom_outsideCutPath
10
390.625
20
138
11
390.625
21
133.75
0
LINE
8
bottom_outsideCutPath
10
390.625
20
133.75
11
388.5
21
133.75
0
LINE
8
bottom_outsideCutPath
10
388.5
20
133.75
11
388.5
21
133.75
0
LINE
8
bottom_outsideCutPath
10
388.5
20
133.75
11
386.375
21
133.75
0
LINE
8
bottom_outsideCutPath
10
386.375
20
133.75
11
386.375
21
138
0
LINE
8
bottom_outsideCutPath
10
386.375
20
138
11
377.25
21
138
0
LINE
8
bottom_outsideCutPath
10
377.25
20
138
11
377.25
21
132
0
LINE
8
bottom_outsideCutPath
10
377.25
20
132
11
354.75
21
132
0
LINE
8
bottom_outsideCutPath
10
354.75
20
132
11
354.75
21
138
0
LINE
8
bottom_outsideCutPath
10
354.75
20
138
11
345.625
21
138
0
LINE
8
bottom_outsideCutPath
10
345.625
20
138
11
345.625
21
133.75
0
LINE
8
bottom_outsideCutPath
10
345.625
20
133.75
11
343.5
21
133.75
0
LINE
8
bottom_outsideCutPath
10
343.5
20
133.75
11
343.5
21
133.75
0
LINE
8
bottom_outsideCutPath
10
343.5
20
133.75
11
341.375
21
133.75
0
LINE
8
bottom_outsideCutPath
10
341.375
20
133.75
11
341.375
21
138
0
LINE
8
bottom_outsideCutPath
10
341.375
20
138
11
332.25
21
138
0
LINE
8
bottom_outsideCutPath
10
332.25
20
138
11
332.25
21
132
0
LINE
8
bottom_outsideCutPath
10
332.25
20
132
11
309.75
21
132
0
LINE
8
bottom_outsideCutPath
10
309.75
20
132
11
309.75
21
138
0
LINE
8
bottom_outsideCutPath
10
309.75
20
138
11
300.625
21
138
0
LINE
8
bottom_outsideCutPath
10
300.625
20
138
11
300.625
21
133.75
0
LINE
8
bottom_outsideCutPath
10
300.625
20
133.75
11
298.5
21
133.75
0
LINE
8
bottom_outsideCutPath
10
298.5
20
133.75
11
298.5
21
133.75
0
LINE
8
bottom_outsideCutPath
10
298.5
20
133.75
11
296.375
21
133.75
0
LINE
8
bottom_outsideCutPath
10
296.375
20
133.75
11
296.375
21
138
0
LINE
8
bottom_outsideCutPath
10
296.375
20
138
11
287.25
21
138
0
LINE
8
bottom_outsideCutPath
10
287.25
20
138
11
287.25
21
132
0
LINE
8
bottom_outsideCutPath
10
287.25
20
132
11
282
21
132
0
ENDSEC
0
EOF